<mxfile host="app.diagrams.net" agent="Mozilla/5.0 (Windows NT 10.0; Win64; x64) AppleWebKit/537.36 (KHTML, like Gecko) Chrome/139.0.0.0 Safari/537.36" version="28.1.1">
  <diagram name="Page-1" id="BoRXx4TaXcmY5YX_rO46">
    <mxGraphModel dx="1042" dy="527" grid="1" gridSize="10" guides="1" tooltips="1" connect="1" arrows="1" fold="1" page="1" pageScale="1" pageWidth="850" pageHeight="1100" math="0" shadow="0">
      <root>
        <mxCell id="0" />
        <mxCell id="1" parent="0" />
        <mxCell id="29lqjo6UiSZvgzMXioNH-7" value="" style="edgeStyle=orthogonalEdgeStyle;rounded=0;orthogonalLoop=1;jettySize=auto;html=1;" edge="1" parent="1" source="29lqjo6UiSZvgzMXioNH-3">
          <mxGeometry relative="1" as="geometry">
            <mxPoint x="380" y="130" as="targetPoint" />
          </mxGeometry>
        </mxCell>
        <mxCell id="29lqjo6UiSZvgzMXioNH-3" value="Start" style="ellipse;whiteSpace=wrap;html=1;" vertex="1" parent="1">
          <mxGeometry x="320" y="10" width="120" height="80" as="geometry" />
        </mxCell>
        <mxCell id="29lqjo6UiSZvgzMXioNH-12" value="" style="edgeStyle=orthogonalEdgeStyle;rounded=0;orthogonalLoop=1;jettySize=auto;html=1;" edge="1" parent="1" source="29lqjo6UiSZvgzMXioNH-10">
          <mxGeometry relative="1" as="geometry">
            <mxPoint x="380" y="250" as="targetPoint" />
          </mxGeometry>
        </mxCell>
        <mxCell id="29lqjo6UiSZvgzMXioNH-10" value="login/register" style="rhombus;whiteSpace=wrap;html=1;" vertex="1" parent="1">
          <mxGeometry x="340" y="130" width="80" height="80" as="geometry" />
        </mxCell>
        <mxCell id="29lqjo6UiSZvgzMXioNH-14" value="" style="edgeStyle=orthogonalEdgeStyle;rounded=0;orthogonalLoop=1;jettySize=auto;html=1;" edge="1" parent="1" source="29lqjo6UiSZvgzMXioNH-11" target="29lqjo6UiSZvgzMXioNH-13">
          <mxGeometry relative="1" as="geometry" />
        </mxCell>
        <mxCell id="29lqjo6UiSZvgzMXioNH-11" value="Enable location" style="whiteSpace=wrap;html=1;" vertex="1" parent="1">
          <mxGeometry x="320" y="250" width="120" height="60" as="geometry" />
        </mxCell>
        <mxCell id="29lqjo6UiSZvgzMXioNH-16" value="" style="edgeStyle=orthogonalEdgeStyle;rounded=0;orthogonalLoop=1;jettySize=auto;html=1;" edge="1" parent="1" source="29lqjo6UiSZvgzMXioNH-13" target="29lqjo6UiSZvgzMXioNH-15">
          <mxGeometry relative="1" as="geometry" />
        </mxCell>
        <mxCell id="29lqjo6UiSZvgzMXioNH-13" value="Choose The Resturant" style="whiteSpace=wrap;html=1;" vertex="1" parent="1">
          <mxGeometry x="320" y="350" width="120" height="60" as="geometry" />
        </mxCell>
        <mxCell id="29lqjo6UiSZvgzMXioNH-18" value="" style="edgeStyle=orthogonalEdgeStyle;rounded=0;orthogonalLoop=1;jettySize=auto;html=1;" edge="1" parent="1" source="29lqjo6UiSZvgzMXioNH-15" target="29lqjo6UiSZvgzMXioNH-17">
          <mxGeometry relative="1" as="geometry" />
        </mxCell>
        <mxCell id="29lqjo6UiSZvgzMXioNH-15" value="Select The Food" style="whiteSpace=wrap;html=1;" vertex="1" parent="1">
          <mxGeometry x="320" y="460" width="120" height="60" as="geometry" />
        </mxCell>
        <mxCell id="29lqjo6UiSZvgzMXioNH-20" value="" style="edgeStyle=orthogonalEdgeStyle;rounded=0;orthogonalLoop=1;jettySize=auto;html=1;" edge="1" parent="1" source="29lqjo6UiSZvgzMXioNH-17" target="29lqjo6UiSZvgzMXioNH-19">
          <mxGeometry relative="1" as="geometry" />
        </mxCell>
        <mxCell id="29lqjo6UiSZvgzMXioNH-17" value="Select The Food" style="whiteSpace=wrap;html=1;" vertex="1" parent="1">
          <mxGeometry x="320" y="560" width="120" height="60" as="geometry" />
        </mxCell>
        <mxCell id="29lqjo6UiSZvgzMXioNH-22" value="" style="edgeStyle=orthogonalEdgeStyle;rounded=0;orthogonalLoop=1;jettySize=auto;html=1;" edge="1" parent="1" source="29lqjo6UiSZvgzMXioNH-19" target="29lqjo6UiSZvgzMXioNH-21">
          <mxGeometry relative="1" as="geometry" />
        </mxCell>
        <mxCell id="29lqjo6UiSZvgzMXioNH-19" value="place the order" style="whiteSpace=wrap;html=1;" vertex="1" parent="1">
          <mxGeometry x="320" y="660" width="120" height="60" as="geometry" />
        </mxCell>
        <mxCell id="29lqjo6UiSZvgzMXioNH-24" value="" style="edgeStyle=orthogonalEdgeStyle;rounded=0;orthogonalLoop=1;jettySize=auto;html=1;" edge="1" parent="1" source="29lqjo6UiSZvgzMXioNH-21">
          <mxGeometry relative="1" as="geometry">
            <mxPoint x="380" y="910" as="targetPoint" />
          </mxGeometry>
        </mxCell>
        <mxCell id="29lqjo6UiSZvgzMXioNH-21" value="place the order" style="whiteSpace=wrap;html=1;" vertex="1" parent="1">
          <mxGeometry x="320" y="770" width="120" height="60" as="geometry" />
        </mxCell>
        <mxCell id="29lqjo6UiSZvgzMXioNH-27" value="" style="edgeStyle=orthogonalEdgeStyle;rounded=0;orthogonalLoop=1;jettySize=auto;html=1;" edge="1" parent="1" source="29lqjo6UiSZvgzMXioNH-25" target="29lqjo6UiSZvgzMXioNH-26">
          <mxGeometry relative="1" as="geometry" />
        </mxCell>
        <mxCell id="29lqjo6UiSZvgzMXioNH-29" value="" style="edgeStyle=orthogonalEdgeStyle;rounded=0;orthogonalLoop=1;jettySize=auto;html=1;" edge="1" parent="1" source="29lqjo6UiSZvgzMXioNH-25" target="29lqjo6UiSZvgzMXioNH-28">
          <mxGeometry relative="1" as="geometry" />
        </mxCell>
        <mxCell id="29lqjo6UiSZvgzMXioNH-25" value="Make the payment online" style="rhombus;whiteSpace=wrap;html=1;" vertex="1" parent="1">
          <mxGeometry x="340" y="910" width="80" height="80" as="geometry" />
        </mxCell>
        <mxCell id="29lqjo6UiSZvgzMXioNH-26" value="Cash on delivery" style="whiteSpace=wrap;html=1;" vertex="1" parent="1">
          <mxGeometry x="480" y="920" width="120" height="60" as="geometry" />
        </mxCell>
        <mxCell id="29lqjo6UiSZvgzMXioNH-33" value="" style="edgeStyle=orthogonalEdgeStyle;rounded=0;orthogonalLoop=1;jettySize=auto;html=1;" edge="1" parent="1" source="29lqjo6UiSZvgzMXioNH-28" target="29lqjo6UiSZvgzMXioNH-32">
          <mxGeometry relative="1" as="geometry" />
        </mxCell>
        <mxCell id="29lqjo6UiSZvgzMXioNH-28" value="order Placed" style="whiteSpace=wrap;html=1;" vertex="1" parent="1">
          <mxGeometry x="320" y="1060" width="120" height="60" as="geometry" />
        </mxCell>
        <mxCell id="29lqjo6UiSZvgzMXioNH-30" value="" style="endArrow=classic;html=1;rounded=0;exitX=0.5;exitY=1;exitDx=0;exitDy=0;" edge="1" parent="1" source="29lqjo6UiSZvgzMXioNH-26">
          <mxGeometry width="50" height="50" relative="1" as="geometry">
            <mxPoint x="540" y="1030" as="sourcePoint" />
            <mxPoint x="540" y="1090" as="targetPoint" />
          </mxGeometry>
        </mxCell>
        <mxCell id="29lqjo6UiSZvgzMXioNH-31" value="" style="endArrow=classic;html=1;rounded=0;entryX=1;entryY=0.5;entryDx=0;entryDy=0;" edge="1" parent="1" target="29lqjo6UiSZvgzMXioNH-28">
          <mxGeometry width="50" height="50" relative="1" as="geometry">
            <mxPoint x="540" y="1090" as="sourcePoint" />
            <mxPoint x="450" y="1090" as="targetPoint" />
          </mxGeometry>
        </mxCell>
        <mxCell id="29lqjo6UiSZvgzMXioNH-35" value="" style="edgeStyle=orthogonalEdgeStyle;rounded=0;orthogonalLoop=1;jettySize=auto;html=1;" edge="1" parent="1" source="29lqjo6UiSZvgzMXioNH-32">
          <mxGeometry relative="1" as="geometry">
            <mxPoint x="380" y="1340" as="targetPoint" />
          </mxGeometry>
        </mxCell>
        <mxCell id="29lqjo6UiSZvgzMXioNH-32" value="Order Recieved" style="whiteSpace=wrap;html=1;" vertex="1" parent="1">
          <mxGeometry x="320" y="1170" width="120" height="60" as="geometry" />
        </mxCell>
        <mxCell id="29lqjo6UiSZvgzMXioNH-38" value="" style="edgeStyle=orthogonalEdgeStyle;rounded=0;orthogonalLoop=1;jettySize=auto;html=1;" edge="1" parent="1" source="29lqjo6UiSZvgzMXioNH-36">
          <mxGeometry relative="1" as="geometry">
            <mxPoint x="380" y="1420" as="targetPoint" />
          </mxGeometry>
        </mxCell>
        <mxCell id="29lqjo6UiSZvgzMXioNH-36" value="Give the Review and Ratings for food and Resturant" style="shape=parallelogram;perimeter=parallelogramPerimeter;whiteSpace=wrap;html=1;fixedSize=1;" vertex="1" parent="1">
          <mxGeometry x="280" y="1280" width="200" height="60" as="geometry" />
        </mxCell>
        <mxCell id="29lqjo6UiSZvgzMXioNH-39" value="End" style="ellipse;whiteSpace=wrap;html=1;" vertex="1" parent="1">
          <mxGeometry x="320" y="1400" width="120" height="80" as="geometry" />
        </mxCell>
      </root>
    </mxGraphModel>
  </diagram>
</mxfile>
